<svg width="42" height="42" viewBox="0 0 42 42" fill="none" xmlns="http://www.w3.org/2000/svg">
<g clip-path="url(#clip0_38_3827)">
<path d="M9.5509 24.9062L8.12128 30.2431L2.89606 30.3537C1.33448 27.4573 0.44873 24.1435 0.44873 20.622C0.44873 17.2167 1.27689 14.0055 2.74485 11.1779H2.74597L7.39789 12.0308L9.43571 16.6548C9.0092 17.8982 8.77673 19.233 8.77673 20.622C8.77689 22.1294 9.04995 23.5737 9.5509 24.9062Z" fill="#FBBB00"/>
<path d="M41.161 16.7857C41.3968 18.028 41.5198 19.3109 41.5198 20.622C41.5198 22.0922 41.3652 23.5263 41.0707 24.9097C40.0711 29.617 37.459 33.7275 33.8405 36.6363L33.8394 36.6352L27.98 36.3362L27.1507 31.1594C29.5518 29.7513 31.4282 27.5477 32.4166 24.9097H21.4358V16.7857H32.5768H41.161Z" fill="#518EF8"/>
<path d="M33.8393 36.6351L33.8404 36.6362C30.3212 39.4649 25.8508 41.1574 20.9843 41.1574C13.164 41.1574 6.36472 36.7863 2.89624 30.3537L9.55108 24.9062C11.2853 29.5346 15.7501 32.8293 20.9843 32.8293C23.2342 32.8293 25.3419 32.2211 27.1506 31.1593L33.8393 36.6351Z" fill="#28B446"/>
<path d="M34.0921 4.81425L27.4395 10.2606C25.5677 9.09059 23.355 8.41469 20.9844 8.41469C15.6317 8.41469 11.0834 11.8606 9.43606 16.6549L2.74624 11.178H2.74512C6.16282 4.5886 13.0478 0.0866089 20.9844 0.0866089C25.9671 0.0866089 30.5357 1.86148 34.0921 4.81425Z" fill="#F14336"/>
</g>
<defs>
<clipPath id="clip0_38_3827">
<rect width="41.0709" height="41.0709" fill="white" transform="translate(0.44873 0.0866089)"/>
</clipPath>
</defs>
</svg>
